<mxfile host="Electron" agent="Mozilla/5.0 (Windows NT 10.0; Win64; x64) AppleWebKit/537.36 (KHTML, like Gecko) draw.io/26.0.7 Chrome/128.0.6613.186 Electron/32.2.5 Safari/537.36" version="26.0.7">
  <diagram name="Page-1" id="EQHxzHbiJP8K4T0frFsT">
    <mxGraphModel dx="1106" dy="990" grid="1" gridSize="10" guides="1" tooltips="1" connect="1" arrows="1" fold="1" page="1" pageScale="1" pageWidth="850" pageHeight="1100" math="0" shadow="0">
      <root>
        <mxCell id="0" />
        <mxCell id="1" parent="0" />
        <mxCell id="g9ERjfLWrA5LG7Rk73J0-1" value="Link to the user profile with photo" style="rounded=0;whiteSpace=wrap;html=1;" vertex="1" parent="1">
          <mxGeometry x="10" y="10" width="400" height="50" as="geometry" />
        </mxCell>
        <mxCell id="g9ERjfLWrA5LG7Rk73J0-2" value="Friends" style="rounded=0;whiteSpace=wrap;html=1;" vertex="1" parent="1">
          <mxGeometry x="10" y="80" width="400" height="50" as="geometry" />
        </mxCell>
        <mxCell id="g9ERjfLWrA5LG7Rk73J0-3" value="Memories" style="rounded=0;whiteSpace=wrap;html=1;" vertex="1" parent="1">
          <mxGeometry x="10" y="150" width="400" height="50" as="geometry" />
        </mxCell>
        <mxCell id="g9ERjfLWrA5LG7Rk73J0-4" value="Saved" style="rounded=0;whiteSpace=wrap;html=1;" vertex="1" parent="1">
          <mxGeometry x="10" y="220" width="400" height="50" as="geometry" />
        </mxCell>
      </root>
    </mxGraphModel>
  </diagram>
</mxfile>
